{"title":"Why Stop Now 2012 HDRIP XVID HS","uid":7419836,"size":1347085808,"categoryP":"video","categoryS":"movies","magnet":"?xt=urn:btih:13a1aa882c4573c2fc1606e557874996fffd75ec&amp;dn=Why+Stop+Now+2012+HDRIP+XVID+HS&amp;tr=udp%3A%2F%2Ftracker.openbittorrent.com%3A80&amp;tr=udp%3A%2F%2Fopen.demonii.com%3A1337&amp;tr=udp%3A%2F%2Ftracker.coppersurfer.tk%3A6969&amp;tr=udp%3A%2F%2Fexodus.desync.com%3A6969","seeders":2,"leechers":0,"uploader":"tykoon123","files":-1,"time":1341631673,"description":"Poster: &lt;a href=&quot;\nhttp://imgh.us/62226165632731068750.jpg&quot; rel=&quot;nofollow&quot; target=&quot;_NEW&quot;&gt;\nhttp://imgh.us/62226165632731068750.jpg&lt;/a&gt;\n\nInfo:\n\nFormat : AVI\nFormat/Info : Audio Video Interleave\nFormat profile : OpenDML\nFile size : 1.25 GiB\nDuration : 1h 27mn\nOverall bit rate : 2 046 Kbps\nWriting application : Lavf52.103.0\n\nVideo\nID : 1\nFormat : MPEG-4 Visual\nFormat profile : Simple@L1\nFormat settings, BVOP : No\nFormat settings, QPel : No\nFormat settings, GMC : No warppoints\nFormat settings, Matrix : Default (H.263)\nCodec ID : FMP4\nDuration : 1h 27mn\nBit rate : 1 903 Kbps\nWidth : 640 pixels\nHeight : 264 pixels\nDisplay aspect ratio : 2.40:1\nFrame rate : 23.976 fps\nColor space : YUV\nChroma subsampling : 4:2:0\nBit depth : 8 bits\nScan type : Progressive\nCompression mode : Lossy\nBits/(Pixel*Frame) : 0.470\nStream size : 1.17 GiB (93%)\nWriting library : Lavc52.116.0\n\nAudio\nID : 0\nFormat : MPEG Audio\nFormat version : Version 1\nFormat profile : Layer 3\nMode : Joint stereo\nMode extension : MS Stereo\nCodec ID : 55\nCodec ID/Hint : MP3\nDuration : 1h 27mn\nBit rate mode : Constant\nBit rate : 128 Kbps\nChannel(s) : 2 channels\nSampling rate : 48.0 KHz\nCompression mode : Lossy\nStream size : 80.4 MiB (6%)\nAlignment : Aligned on interleaves\nInterleave, duration : 42 ms (1.00 video frame)\nWriting library : LAME3.98.4\n\nSCREENS: &lt;a href=&quot;\nhttp://imgh.us/40220317803186069914.png&quot; rel=&quot;nofollow&quot; target=&quot;_NEW&quot;&gt;\nhttp://imgh.us/40220317803186069914.png&lt;/a&gt; &lt;a href=&quot;\nhttp://imgh.us/60906228547423127494.png&quot; rel=&quot;nofollow&quot; target=&quot;_NEW&quot;&gt;\nhttp://imgh.us/60906228547423127494.png&lt;/a&gt; &lt;a href=&quot;\nhttp://imgh.us/71214821060371875008.png&quot; rel=&quot;nofollow&quot; target=&quot;_NEW&quot;&gt;\nhttp://imgh.us/71214821060371875008.png&lt;/a&gt; &lt;a href=&quot;\nhttp://imgh.us/11854786578172088450.png&quot; rel=&quot;nofollow&quot; target=&quot;_NEW&quot;&gt;\nhttp://imgh.us/11854786578172088450.png&lt;/a&gt;","torrent":{"xt":"urn:btih:13a1aa882c4573c2fc1606e557874996fffd75ec","amp;dn":"Why+Stop+Now+2012+HDRIP+XVID+HS","amp;tr":["udp%3A%2F%2Ftracker.openbittorrent.com%3A80","udp%3A%2F%2Fopen.demonii.com%3A1337","udp%3A%2F%2Ftracker.coppersurfer.tk%3A6969","udp%3A%2F%2Fexodus.desync.com%3A6969"],"infoHash":"13a1aa882c4573c2fc1606e557874996fffd75ec","infoHashBuffer":{"type":"Buffer","data":[19,161,170,136,44,69,115,194,252,22,6,229,87,135,73,150,255,253,117,236]},"announce":[],"urlList":[]}}